<?xml version="1.0" encoding="UTF-8"?>
<svg version="1.1" xmlns="http://www.w3.org/2000/svg" width="32" height="32">
<path d="M0 0 C4.61581142 2.18643699 6.72864085 4.49599804 9 9 C9.82885269 14.54808604 9.7240695 19.47140883 7.3125 24.5625 C4.21064779 27.8320199 1.61649202 29.75850523 -2.90234375 30.43359375 C-9.05071801 30.44150672 -13.31314296 30.4465054 -18 26 C-21.88937897 20.55860924 -21.79042609 15.48149391 -21 9 C-16.63929544 -0.20593186 -9.3488659 -1.1401056 0 0 Z " fill="#F8DB62" transform="translate(22,1)"/>
<path d="M0 0 C4.61581142 2.18643699 6.72864085 4.49599804 9 9 C9.82885269 14.54808604 9.7240695 19.47140883 7.3125 24.5625 C4.15970947 27.88571164 1.61118055 29.80540287 -3.0078125 30.36328125 C-4.03648438 30.34652344 -5.06515625 30.32976563 -6.125 30.3125 C-7.15882812 30.30863281 -8.19265625 30.30476563 -9.2578125 30.30078125 C-12 30 -12 30 -15 28 C-14.67 27.34 -14.34 26.68 -14 26 C-13.505 26.33 -13.01 26.66 -12.5 27 C-8.82094852 28.47162059 -5.96398837 28.2516818 -2 28 C-1.01 27.34 -0.02 26.68 1 26 C0.34 26 -0.32 26 -1 26 C-1.99 23.03 -2.98 20.06 -4 17 C-3.01 17 -2.02 17 -1 17 C-1.66 16.67 -2.32 16.34 -3 16 C-3 15.34 -3 14.68 -3 14 C-1.68 13.34 -0.36 12.68 1 12 C-0.65 12.33 -2.3 12.66 -4 13 C-3.52449439 11.51965236 -3.04448784 10.04074979 -2.5625 8.5625 C-2.16224609 7.32693359 -2.16224609 7.32693359 -1.75390625 6.06640625 C-1 4 -1 4 0 3 C-3.19114781 1.4044261 -6.52740245 1.61415583 -10 2 C-13.40241824 3.3648868 -13.40241824 3.3648868 -16 5 C-12.90807123 -1.84641371 -6.79580918 -0.63960557 0 0 Z " fill="#FBBB5C" transform="translate(22,1)"/>
<path d="M0 0 C0.66 0 1.32 0 2 0 C2.99 2.97 3.98 5.94 5 9 C4.67 9.33 4.34 9.66 4 10 C1.66055264 9.71269945 -0.6739143 9.38063221 -3 9 C-2.01 6.03 -1.02 3.06 0 0 Z " fill="#FBBA5F" transform="translate(15,19)"/>
<path d="M0 0 C1.39195915 4.17587745 -0.17676781 6.13474776 -2 10 C-2.66 10 -3.32 10 -4 10 C-4.99 7.03 -5.98 4.06 -7 1 C-4.53721199 -0.231394 -2.7204945 -0.07159196 0 0 Z " fill="#FBBA60" transform="translate(19,3)"/>
<path d="M0 0 C2.97 0.99 5.94 1.98 9 3 C8.25 5.4375 8.25 5.4375 7 8 C5.68 8.33 4.36 8.66 3 9 C2.01 6.03 1.02 3.06 0 0 Z " fill="#FBB65D" transform="translate(18,18)"/>
<path d="M0 0 C2.97 0.99 5.94 1.98 9 3 C9 3.66 9 4.32 9 5 C4.545 6.485 4.545 6.485 0 8 C-1.125 2.25 -1.125 2.25 0 0 Z " fill="#FBBA60" transform="translate(4,12)"/>
<path d="M0 0 C0.99 2.97 1.98 5.94 3 9 C0.03 8.01 -2.94 7.02 -6 6 C-3.84615385 0 -3.84615385 0 0 0 Z " fill="#FBBA60" transform="translate(11,5)"/>
<path d="M0 0 C-0.99 2.97 -1.98 5.94 -3 9 C-5.4375 8.25 -5.4375 8.25 -8 7 C-8.8125 4.875 -8.8125 4.875 -9 3 C-2.25 0 -2.25 0 0 0 Z " fill="#FBB960" transform="translate(14,18)"/>
<path d="M0 0 C0.99 0.33 1.98 0.66 3 1 C3 2.98 3 4.96 3 7 C2.01 7.33 1.02 7.66 0 8 C0 5.36 0 2.72 0 0 Z " fill="#FBAE54" transform="translate(26,12)"/>
</svg>
